<?xml version="1.0" encoding="UTF-8" standalone="no"?>
<!-- Created with Inkscape (http://www.inkscape.org/) -->

<svg
   width="48"
   height="48"
   viewBox="0 0 12.7 12.7"
   version="1.1"
   id="svg5"
   sodipodi:docname="drawing.svg"
   inkscape:version="1.1 (c68e22c387, 2021-05-23)"
   xmlns:inkscape="http://www.inkscape.org/namespaces/inkscape"
   xmlns:sodipodi="http://sodipodi.sourceforge.net/DTD/sodipodi-0.dtd"
   xmlns="http://www.w3.org/2000/svg"
   xmlns:svg="http://www.w3.org/2000/svg">
  <sodipodi:namedview
     id="namedview7"
     pagecolor="#505050"
     bordercolor="#ffffff"
     borderopacity="1"
     inkscape:pageshadow="0"
     inkscape:pageopacity="0"
     inkscape:pagecheckerboard="1"
     inkscape:document-units="mm"
     showgrid="false"
     units="px"
     inkscape:zoom="8"
     inkscape:cx="75.422853"
     inkscape:cy="29.1761"
     inkscape:window-width="2560"
     inkscape:window-height="1351"
     inkscape:window-x="1591"
     inkscape:window-y="-9"
     inkscape:window-maximized="1"
     inkscape:current-layer="layer1" />
  <defs
     id="defs2" />
  <g
     inkscape:label="Layer 1"
     inkscape:groupmode="layer"
     id="layer1">
    <path
       style="fill:none;stroke:#000000;stroke-width:0.264583px;stroke-linecap:round;stroke-linejoin:miter;stroke-opacity:1"
       d="M 8.6837145,2.6445842 C 9.4585193,3.0709981 9.9552668,3.8467897 9.9552668,3.8467897"
       id="path933" />
    <path
       style="fill:none;stroke:#000000;stroke-width:0.264583px;stroke-linecap:round;stroke-linejoin:miter;stroke-opacity:1"
       d="M 9.9552668,3.8467897 C 10.634288,3.1643267 10.634288,3.1643267 10.634288,3.1643267"
       id="path935" />
    <path
       style="fill:none;stroke:#000000;stroke-width:0.264583px;stroke-linecap:round;stroke-linejoin:miter;stroke-opacity:1"
       d="M 8.6837145,2.6445842 C 9.2201395,2.038858 9.2201395,2.038858 9.2201395,2.038858"
       id="path937" />
    <path
       style="fill:none;stroke:#000000;stroke-width:0.264583px;stroke-linecap:round;stroke-linejoin:miter;stroke-opacity:1"
       d="M 10.634288,3.1643267 C 11.25158,4.3349788 11.42784,5.752479 11.42784,5.752479 v 0 C 10.650717,7.0362396 7.7631887,10.25467 7.7631887,10.25467"
       id="path939" />
    <path
       style="fill:none;stroke:#000000;stroke-width:0.264583px;stroke-linecap:round;stroke-linejoin:miter;stroke-opacity:1"
       d="M 9.2201395,2.038858 C 7.7903857,1.308594 6.6244611,1.1687503 6.6244611,1.1687503"
       id="path941" />
    <path
       style="fill:#ff0000;stroke:#000000;stroke-width:0;stroke-linecap:butt;stroke-linejoin:miter;stroke-opacity:1;stroke-miterlimit:4;stroke-dasharray:none"
       d="M 5.4807384,2.1610224 C 4.5985144,2.0398514 4.5806862,2.2218907 4.5806862,2.2218907 L 3.5037339,3.455072 3.7396406,4.1447622"
       id="path1490" />
    <path
       style="fill:none;stroke:#000000;stroke-width:0.264583px;stroke-linecap:round;stroke-linejoin:miter;stroke-opacity:1"
       d="M 6.6244611,1.1687503 C 4.6858421,2.7509906 2.7204425,5.5619633 2.7204425,5.5619633"
       id="path943" />
    <path
       style="fill:none;stroke:#000000;stroke-width:0.264583px;stroke-linecap:round;stroke-linejoin:round;stroke-opacity:1"
       d="M 7.7631887,10.25467 C 6.3094078,11.842327 4.551387,12.617177 3.7198789,12.091285 2.8883708,11.565393 1.6708141,10.705084 1.4871183,10.287139 1.3034224,9.8691926 0.84536477,8.6350442 1.2975719,7.5546687 1.749779,6.474293 2.7204424,5.5619633 2.7204424,5.5619633"
       id="path1058" />
    <path
       style="fill:none;stroke:#000000;stroke-width:0.264583px;stroke-linecap:round;stroke-linejoin:miter;stroke-opacity:1"
       d="M 3.7396406,4.1447622 C 2.4837382,3.8789588 1.9829513,4.1325993 1.2421543,5.3365706 0.50135739,6.5405423 0.1428684,7.912904 0.52281256,8.4598617 0.90275671,9.0068192 1.4504479,10.230779 1.4504479,10.230779"
       id="path1060" />
    <path
       style="fill:none;stroke:#000000;stroke-width:0.264583px;stroke-linecap:butt;stroke-linejoin:miter;stroke-opacity:1"
       d="M 9.3821265,3.0645496 C 11.008726,1.5329089 13.700441,0.98482823 13.700441,0.98482823"
       id="path1074" />
    <path
       style="fill:#1a1a1a;stroke:#000000;stroke-width:0.264583px;stroke-linecap:round;stroke-linejoin:bevel;stroke-opacity:1"
       d="M 8.5385332,3.6457795 C 8.9389166,3.9954394 9.0009489,4.0213831 9.0009489,4.0213831 L 7.6063675,5.6829206 7.1839898,5.3422828 Z"
       id="path2449" />
    <path
       style="fill:none;stroke:#000000;stroke-width:0.264583px;stroke-linecap:round;stroke-linejoin:miter;stroke-opacity:1"
       d="M 9.9552666,3.8467897 6.5911356,7.6616339"
       id="path2709" />
    <path
       style="fill:none;stroke:#000000;stroke-width:0.264583px;stroke-linecap:round;stroke-linejoin:miter;stroke-opacity:1"
       d="M 8.6837143,2.6445842 5.4348797,6.4965973"
       id="path2711" />
    <path
       style="fill:none;stroke:#000000;stroke-width:0.264583px;stroke-linecap:round;stroke-linejoin:miter;stroke-opacity:1"
       d="M 5.4348797,6.4965973 2.7204424,5.5619633"
       id="path2713" />
    <path
       style="fill:none;stroke:#000000;stroke-width:0.264583px;stroke-linecap:round;stroke-linejoin:miter;stroke-opacity:1"
       d="m 6.5911356,7.6616337 1.504278,2.1888296"
       id="path2715" />
    <path
       style="fill:#1a1a1a;stroke-width:0;stroke-linecap:round;stroke-linejoin:bevel;stroke-miterlimit:4;stroke-dasharray:none"
       d="m 11.394022,20.356901 c 0.157234,-0.212282 0.432875,-0.584324 0.612534,-0.82676 0.799526,-1.078901 1.927735,-2.53171 3.177417,-4.091601 0.792803,-0.989602 3.482513,-4.099492 4.374761,-5.058177 1.919964,-2.0629259 3.418043,-3.5240876 5.083292,-4.9580238 0.445361,-0.3834973 0.526225,-0.4427503 0.603197,-0.4419912 0.04889,4.821e-4 0.273408,0.035781 0.498933,0.078443 2.076854,0.3928691 4.486168,1.1435256 6.675383,2.0798116 0.463842,0.1983764 1.530279,0.6868231 1.564161,0.7164129 0.0073,0.00637 -0.35902,0.4379385 -0.814031,0.9590412 -0.455006,0.5211069 -3.438456,4.0441113 -6.629878,7.8289073 -3.191423,3.784795 -5.885791,6.976815 -5.987484,7.093377 l -0.184908,0.211922 -4.573974,-1.574979 c -2.515675,-0.86623 -4.599011,-1.587445 -4.629624,-1.602693 -0.05206,-0.02593 -0.03719,-0.05266 0.230221,-0.41369 z"
       id="path2942"
       transform="scale(0.26458333)" />
    <path
       style="fill:#333333;stroke-width:0;stroke-linecap:round;stroke-linejoin:bevel;stroke-miterlimit:4;stroke-dasharray:none"
       d="m 28.093598,32.679364 -2.529419,-3.683503 6.170181,-7.001717 6.170181,-7.001717 1.076567,-1.082499 1.076567,-1.082499 0.243473,0.54127 c 0.999507,2.222016 1.850626,5.136709 2.280329,7.809081 0.07333,0.456038 0.07312,0.467836 -0.01056,0.59242 -0.04696,0.06991 -0.203197,0.304277 -0.347193,0.52081 -1.586156,2.385158 -4.6325,6.182043 -9.272858,11.557453 -2.195254,2.542992 -2.242072,2.595359 -2.284515,2.5553 -0.02383,-0.02249 -1.181569,-1.698472 -2.57275,-3.724399 z"
       id="path2981"
       transform="scale(0.26458333)" />
    <path
       style="fill:#333333;stroke-width:0;stroke-linecap:round;stroke-linejoin:bevel;stroke-miterlimit:4;stroke-dasharray:none"
       d="M 6.9912748,39.811302 C 6.2782497,39.052611 6.1983857,38.934629 5.9047132,38.206105 4.6318271,35.048404 4.3511205,31.882421 5.1288295,29.455196 5.5916914,28.010606 6.5529264,26.310457 8.0102751,24.358744 8.3529184,23.899868 10.115306,21.876588 10.309026,21.719701 l 0.123109,-0.0997 4.989384,1.721276 c 5.346778,1.844573 5.180597,1.793598 5.386928,1.652423 0.04269,-0.02921 2.636003,-3.08384 5.762912,-6.788062 3.126908,-3.704222 5.840332,-6.91694 6.029831,-7.139373 l 0.344544,-0.404424 0.305173,0.196898 c 0.564534,0.364238 1.299862,0.95654 1.832937,1.476419 0.661798,0.645416 1.300853,1.366838 1.740744,1.965106 l 0.140792,0.191483 -1.485362,1.696252 c -0.816949,0.932938 -3.615978,4.111031 -6.220065,7.062427 -2.604086,2.951396 -4.765122,5.419053 -4.802302,5.483682 -0.09619,0.167206 -0.07547,0.339278 0.06776,0.562775 0.06472,0.100981 1.318294,1.930079 2.785727,4.064662 l 2.668059,3.881061 -0.340989,0.405278 c -0.92717,1.101978 -2.43925,2.59967 -3.660667,3.625835 -3.559466,2.990459 -7.308327,4.696231 -9.906156,4.507403 C 15.58517,45.745782 14.949864,45.587478 14.622759,45.420157 13.937789,45.06978 11.316032,43.286726 9.5470225,41.968156 9.0794814,41.619666 7.2005963,40.034031 6.9912748,39.811302 Z m 20.7987392,-18.447521 0.633062,0.51031 0.340649,-0.02188 0.340649,-0.02188 0.237469,-0.270715 c 0.403972,-0.460527 4.75632,-5.639334 4.920224,-5.854517 l 0.154707,-0.203108 -0.08766,-0.358955 c -0.04821,-0.197424 -0.08755,-0.369763 -0.08742,-0.382974 1.28e-4,-0.01321 -0.106852,-0.104498 -0.237732,-0.20286 -0.130881,-0.09836 -0.498949,-0.403772 -0.817929,-0.678689 l -0.579963,-0.499849 -0.368499,0.03847 -0.368499,0.03847 -2.516946,3.15404 c -1.38432,1.734722 -2.536512,3.183866 -2.560426,3.220321 -0.02773,0.04227 -0.0306,0.191895 -0.0079,0.413078 l 0.03555,0.346795 0.168816,0.131812 c 0.09285,0.0725 0.453693,0.361451 0.801877,0.642121 z"
       id="path3057"
       transform="scale(0.26458333)" />
    <path
       style="fill:#1a1a1a;stroke-width:0;stroke-linecap:round;stroke-linejoin:bevel;stroke-miterlimit:4;stroke-dasharray:none"
       d="M 30.118457,35.594872 C 29.84367,35.195489 29.60518,34.866457 29.58848,34.863688 c -0.0167,-0.0028 -0.02632,-0.01683 -0.02139,-0.03125 0.01011,-0.02951 -2.15409,-3.190758 -2.234957,-3.264612 -0.02856,-0.02609 -0.04392,-0.05661 -0.03412,-0.06783 0.0098,-0.01122 -0.0076,-0.03305 -0.03863,-0.04851 -0.03104,-0.01546 -0.05322,-0.03816 -0.04929,-0.05045 0.01049,-0.03279 -0.653338,-0.996428 -0.690687,-1.00262 -0.01745,-0.0029 -0.0279,-0.01682 -0.02322,-0.03094 0.01201,-0.03624 -0.577581,-0.894047 -0.619244,-0.900955 -0.01885,-0.0031 -0.0234,-0.01813 -0.01011,-0.03335 0.01405,-0.01608 -4.9e-5,-0.03973 -0.03366,-0.05647 -0.0318,-0.01584 -0.05071,-0.03695 -0.042,-0.04692 0.0087,-0.01 -0.03595,-0.08711 -0.09923,-0.171423 l -0.115052,-0.153305 0.675405,-0.784009 c 0.371473,-0.431206 0.723305,-0.83553 0.78185,-0.898498 0.214354,-0.230553 4.500344,-5.084008 6.87795,-7.788592 2.532491,-2.880771 3.956221,-4.47685 4.389483,-4.920852 0.138254,-0.141681 0.315053,-0.326182 0.392888,-0.410001 0.07784,-0.08382 0.164601,-0.166741 0.192814,-0.184272 0.04518,-0.02807 0.167838,-0.151949 0.833814,-0.842106 0.156933,-0.16263 0.327525,-0.315564 0.339923,-0.304736 0.0039,0.0034 0.128009,0.281142 0.275842,0.617227 0.985506,2.240481 1.807451,5.070952 2.222242,7.652574 0.07343,0.45701 0.06652,0.549426 -0.05322,0.712121 -0.145555,0.197762 -0.562262,0.81889 -0.578748,0.862658 -0.0097,0.02576 -0.04972,0.07902 -0.08894,0.118363 -0.03922,0.03934 -0.07405,0.08808 -0.0774,0.108305 -0.0034,0.02023 -0.08559,0.138239 -0.182743,0.262253 -0.09716,0.124013 -0.182791,0.250125 -0.1903,0.280247 -0.0075,0.03012 -0.0269,0.06206 -0.04308,0.07097 -0.01619,0.0089 -0.230756,0.288279 -0.476825,0.620815 -0.246069,0.332536 -0.547706,0.731719 -0.670304,0.887072 -0.122598,0.155354 -0.347188,0.444641 -0.49909,0.64286 -0.151901,0.19822 -0.368456,0.475855 -0.481232,0.616967 -1.764107,2.20735 -2.832925,3.490009 -5.472851,6.567814 -1.029512,1.200273 -1.811034,2.123396 -1.736718,2.051382 0.07432,-0.07201 -0.179044,0.229489 -0.563023,0.670006 -0.383978,0.440517 -0.644472,0.726455 -0.578874,0.635418 l 0.119269,-0.165522 -0.142814,0.155332 c -0.120752,0.131336 -0.149095,0.14968 -0.183473,0.118749 -0.02236,-0.02012 -0.265485,-0.363349 -0.540274,-0.762731 z"
       id="path3096"
       transform="scale(0.26458333)" />
    <path
       style="fill:#0c0c0c;stroke-width:0;stroke-linecap:round;stroke-linejoin:bevel;stroke-miterlimit:4;stroke-dasharray:none;fill-opacity:1"
       d="M 3.6371064,33.746634 C 3.519409,33.506367 2.8524561,32.372082 2.5950627,31.974433 2.2307814,31.411653 2.1706729,31.289904 2.0644119,30.899607 1.6628527,29.424677 2.1067727,26.872878 3.2411553,24.135296 4.3154368,21.542753 6.1296758,18.62294 7.4607742,17.344293 8.771886,16.084846 10.111819,15.668376 12.187151,15.87527 c 0.556112,0.05544 1.151851,0.15397 1.15435,0.19092 0.0011,0.01574 -0.126018,0.191709 -0.282405,0.391037 -0.884481,1.127344 -1.886217,2.453299 -2.723567,3.605071 -0.3893412,0.535537 -0.5133875,0.688323 -0.7194116,0.886089 -0.4404446,0.42279 -2.0688807,2.306485 -2.5240239,2.919667 -0.7129453,0.9605 -1.1778634,1.656906 -1.6451515,2.46429 -1.2169088,2.102583 -1.7005356,3.63438 -1.7795263,5.636314 -0.019429,0.492401 0.00248,1.358358 0.042409,1.676275 0.029045,0.231253 0.00632,0.263041 -0.072718,0.101701 z"
       id="path3246"
       transform="scale(0.26458333)" />
    <path
       style="fill:none;stroke:#ff0000;stroke-width:0.264583px;stroke-linecap:butt;stroke-linejoin:round;stroke-opacity:1"
       d="M 3.4942594,2.389839 C 2.43221,1.4421347 1.0263486,1.4932418 1.0263486,1.4932418"
       id="path4956" />
    <path
       style="fill:none;stroke:#ff0000;stroke-width:0.264583px;stroke-linecap:round;stroke-linejoin:round;stroke-opacity:1"
       d="M 3.4942594,2.389839 3.4660054,1.3892356 Z"
       id="path4958" />
    <path
       style="fill:#ff0000;stroke:#ff0000;stroke-width:0.265482;stroke-linecap:round;stroke-linejoin:miter;stroke-miterlimit:4;stroke-dasharray:none;stroke-opacity:1"
       d="m 3.4942594,2.389839 -0.8935176,0.00397"
       id="path4960" />
  </g>
</svg>
